# Blender v3.1.2 OBJ File: 'untitled.blend'
# www.blender.org
mtllib hexPrism.mtl
o hex
v 0.000000 -1.000000 -0.000000
v 0.870000 -0.500000 -0.000000
v 0.870000 0.500000 0.000000
v 0.000000 1.000000 0.000000
v -0.870000 0.500000 0.000000
v -0.870000 -0.500000 -0.000000
v 0.000000 -1.000000 -0.000000
v 0.870000 -0.500000 -0.000000
v 0.870000 0.500000 0.000000
v 0.000000 1.000000 0.000000
v -0.870000 0.500000 0.000000
v -0.870000 -0.500000 -0.000000
v 0.000000 -0.999999 -2.173627
v 0.870000 -0.499999 -2.173627
v 0.870000 0.500001 -2.173627
v 0.000000 1.000001 -2.173626
v -0.870000 0.500001 -2.173627
v -0.870000 -0.499999 -2.173627
vn 0.0000 -0.0000 1.0000
vn 0.0000 0.0000 -1.0000
vn 0.4983 -0.8670 -0.0000
vn 0.4983 0.8670 0.0000
vn -1.0000 0.0000 0.0000
vn -0.4983 -0.8670 -0.0000
vn 1.0000 0.0000 0.0000
vn -0.4983 0.8670 0.0000
usemtl Default_OBJ
s 1
f 4//1 5//1 6//1
f 6//1 1//1 4//1
f 1//1 2//1 4//1
f 2//1 3//1 4//1
f 16//2 18//2 17//2
f 14//2 16//2 15//2
f 13//3 14//3 2//3 1//3
f 15//4 16//4 4//4 3//4
f 13//2 18//2 16//2 14//2
f 17//5 18//5 6//5 5//5
f 18//6 13//6 1//6 6//6
f 14//7 15//7 3//7 2//7
f 16//8 17//8 5//8 4//8
l 1 7
l 2 8
l 3 9
l 4 10
l 5 11
l 6 12
